{
    "asset" : {
        "generator" : "Khronos glTF Blender I/O v1.0.5",
        "version" : "2.0"
    },
    "scene" : 0,
    "scenes" : [
        {
            "name" : "Scene",
            "nodes" : [
                0
            ]
        }
    ],
    "nodes" : [
        {
            "mesh" : 0,
            "name" : "redheadduck_lowpoly_0"
        }
    ],
    "materials" : [
        {
            "doubleSided" : true,
            "emissiveFactor" : [
                0,
                0,
                0
            ],
            "name" : "baking_COLOR_0",
            "pbrMetallicRoughness" : {
                "metallicFactor" : 0,
                "roughnessFactor" : 0.6000000238418579
            }
        },
        {
            "doubleSided" : true,
            "name" : "Material.001",
            "pbrMetallicRoughness" : {
                "baseColorTexture" : {
                    "index" : 0,
                    "texCoord" : 0
                },
                "metallicFactor" : 0,
                "roughnessFactor" : 1
            }
        },
        {
            "doubleSided" : true,
            "name" : "Material.002",
            "pbrMetallicRoughness" : {
                "baseColorTexture" : {
                    "index" : 1,
                    "texCoord" : 0
                },
                "metallicFactor" : 0.8545454740524292,
                "roughnessFactor" : 0.5
            }
        }
    ],
    "meshes" : [
        {
            "name" : "redheadduck_lowpoly_0",
            "primitives" : [
                {
                    "attributes" : {
                        "POSITION" : 0,
                        "NORMAL" : 1,
                        "TEXCOORD_0" : 2,
                        "TEXCOORD_1" : 3,
                        "COLOR_0" : 4
                    },
                    "indices" : 5,
                    "material" : 0
                },
                {
                    "attributes" : {
                        "POSITION" : 6,
                        "NORMAL" : 7,
                        "TEXCOORD_0" : 8,
                        "TEXCOORD_1" : 9,
                        "COLOR_0" : 10
                    },
                    "indices" : 11,
                    "material" : 1
                },
                {
                    "attributes" : {
                        "POSITION" : 12,
                        "NORMAL" : 13,
                        "TEXCOORD_0" : 14,
                        "TEXCOORD_1" : 15,
                        "COLOR_0" : 16
                    },
                    "indices" : 17,
                    "material" : 2
                }
            ]
        }
    ],
    "textures" : [
        {
            "source" : 0
        },
        {
            "source" : 1
        }
    ],
    "images" : [
        {
            "mimeType" : "image/jpeg",
            "name" : "mallardMale",
            "uri" : "mallardMale.jpg"
        },
        {
            "mimeType" : "image/jpeg",
            "name" : "black",
            "uri" : "black.jpg"
        }
    ],
    "accessors" : [
        {
            "bufferView" : 0,
            "componentType" : 5126,
            "count" : 9,
            "max" : [
                0,
                0.7608399987220764,
                0.16798999905586243
            ],
            "min" : [
                -0.06112999841570854,
                0.0044200001284480095,
                -0.08139000087976456
            ],
            "type" : "VEC3"
        },
        {
            "bufferView" : 1,
            "componentType" : 5126,
            "count" : 9,
            "type" : "VEC3"
        },
        {
            "bufferView" : 2,
            "componentType" : 5126,
            "count" : 9,
            "type" : "VEC2"
        },
        {
            "bufferView" : 3,
            "componentType" : 5126,
            "count" : 9,
            "type" : "VEC2"
        },
        {
            "bufferView" : 4,
            "componentType" : 5126,
            "count" : 9,
            "type" : "VEC4"
        },
        {
            "bufferView" : 5,
            "componentType" : 5123,
            "count" : 9,
            "type" : "SCALAR"
        },
        {
            "bufferView" : 6,
            "componentType" : 5126,
            "count" : 4185,
            "max" : [
                0.20830848813056946,
                0.9373300075531006,
                0.3925788700580597
            ],
            "min" : [
                -0.22723054885864258,
                0.001550000044517219,
                -0.40926000475883484
            ],
            "type" : "VEC3"
        },
        {
            "bufferView" : 7,
            "componentType" : 5126,
            "count" : 4185,
            "type" : "VEC3"
        },
        {
            "bufferView" : 8,
            "componentType" : 5126,
            "count" : 4185,
            "type" : "VEC2"
        },
        {
            "bufferView" : 9,
            "componentType" : 5126,
            "count" : 4185,
            "type" : "VEC2"
        },
        {
            "bufferView" : 10,
            "componentType" : 5126,
            "count" : 4185,
            "type" : "VEC4"
        },
        {
            "bufferView" : 11,
            "componentType" : 5123,
            "count" : 4185,
            "type" : "SCALAR"
        },
        {
            "bufferView" : 12,
            "componentType" : 5126,
            "count" : 589,
            "max" : [
                0.046646296977996826,
                0.8927369713783264,
                0.2303323596715927
            ],
            "min" : [
                -0.07231089472770691,
                0.854857861995697,
                0.1970975250005722
            ],
            "type" : "VEC3"
        },
        {
            "bufferView" : 13,
            "componentType" : 5126,
            "count" : 589,
            "type" : "VEC3"
        },
        {
            "bufferView" : 14,
            "componentType" : 5126,
            "count" : 589,
            "type" : "VEC2"
        },
        {
            "bufferView" : 15,
            "componentType" : 5126,
            "count" : 589,
            "type" : "VEC2"
        },
        {
            "bufferView" : 16,
            "componentType" : 5126,
            "count" : 589,
            "type" : "VEC4"
        },
        {
            "bufferView" : 17,
            "componentType" : 5123,
            "count" : 2880,
            "type" : "SCALAR"
        }
    ],
    "bufferViews" : [
        {
            "buffer" : 0,
            "byteLength" : 108,
            "byteOffset" : 0
        },
        {
            "buffer" : 0,
            "byteLength" : 108,
            "byteOffset" : 108
        },
        {
            "buffer" : 0,
            "byteLength" : 72,
            "byteOffset" : 216
        },
        {
            "buffer" : 0,
            "byteLength" : 72,
            "byteOffset" : 288
        },
        {
            "buffer" : 0,
            "byteLength" : 144,
            "byteOffset" : 360
        },
        {
            "buffer" : 0,
            "byteLength" : 18,
            "byteOffset" : 504
        },
        {
            "buffer" : 0,
            "byteLength" : 50220,
            "byteOffset" : 524
        },
        {
            "buffer" : 0,
            "byteLength" : 50220,
            "byteOffset" : 50744
        },
        {
            "buffer" : 0,
            "byteLength" : 33480,
            "byteOffset" : 100964
        },
        {
            "buffer" : 0,
            "byteLength" : 33480,
            "byteOffset" : 134444
        },
        {
            "buffer" : 0,
            "byteLength" : 66960,
            "byteOffset" : 167924
        },
        {
            "buffer" : 0,
            "byteLength" : 8370,
            "byteOffset" : 234884
        },
        {
            "buffer" : 0,
            "byteLength" : 7068,
            "byteOffset" : 243256
        },
        {
            "buffer" : 0,
            "byteLength" : 7068,
            "byteOffset" : 250324
        },
        {
            "buffer" : 0,
            "byteLength" : 4712,
            "byteOffset" : 257392
        },
        {
            "buffer" : 0,
            "byteLength" : 4712,
            "byteOffset" : 262104
        },
        {
            "buffer" : 0,
            "byteLength" : 9424,
            "byteOffset" : 266816
        },
        {
            "buffer" : 0,
            "byteLength" : 5760,
            "byteOffset" : 276240
        }
    ],
    "buffers" : [
        {
            "byteLength" : 282000,
            "uri" : "scene.bin"
        }
    ]
}
