{
  "accessors": [
    {
      "bufferView": 2,
      "componentType": 5126,
      "count": 1320,
      "max": [
        0.19119961559772491,
        1.2867615222930908,
        0.47610124945640564
      ],
      "min": [
        -0.49661320447921753,
        0.40167686343193054,
        -0.4784139394760132
      ],
      "type": "VEC3"
    },
    {
      "bufferView": 2,
      "byteOffset": 15840,
      "componentType": 5126,
      "count": 1320,
      "max": [
        0.9994683861732483,
        0.977107048034668,
        0.9742002487182617
      ],
      "min": [
        -0.9993926286697388,
        -0.9600884318351746,
        -0.9830747842788696
      ],
      "type": "VEC3"
    },
    {
      "bufferView": 3,
      "componentType": 5126,
      "count": 1320,
      "max": [
        0.9999748468399048,
        0.9999595284461975,
        0.9979820251464844,
        1.0
      ],
      "min": [
        -0.9999890327453613,
        -0.9999789595603943,
        -0.99826979637146,
        1.0
      ],
      "type": "VEC4"
    },
    {
      "bufferView": 1,
      "componentType": 5126,
      "count": 1320,
      "max": [
        1.0000001192092896,
        1.0
      ],
      "min": [
        0.0,
        -1.1920928955078125e-07
      ],
      "type": "VEC2"
    },
    {
      "bufferView": 1,
      "byteOffset": 10560,
      "componentType": 5126,
      "count": 1320,
      "max": [
        0.0,
        1.0
      ],
      "min": [
        0.0,
        1.0
      ],
      "type": "VEC2"
    },
    {
      "bufferView": 1,
      "byteOffset": 21120,
      "componentType": 5126,
      "count": 1320,
      "max": [
        1.0000001192092896,
        1.0
      ],
      "min": [
        0.0,
        -1.1920928955078125e-07
      ],
      "type": "VEC2"
    },
    {
      "bufferView": 1,
      "byteOffset": 31680,
      "componentType": 5126,
      "count": 1320,
      "max": [
        1.0000001192092896,
        1.0
      ],
      "min": [
        0.0,
        -1.1920928955078125e-07
      ],
      "type": "VEC2"
    },
    {
      "bufferView": 1,
      "byteOffset": 42240,
      "componentType": 5126,
      "count": 1320,
      "max": [
        1.0000001192092896,
        1.0
      ],
      "min": [
        0.0,
        -1.1920928955078125e-07
      ],
      "type": "VEC2"
    },
    {
      "bufferView": 0,
      "componentType": 5125,
      "count": 3486,
      "type": "SCALAR"
    },
    {
      "bufferView": 2,
      "byteOffset": 31680,
      "componentType": 5126,
      "count": 1833,
      "max": [
        0.2913478910923004,
        0.5338581204414368,
        0.28734663128852844
      ],
      "min": [
        -0.2913478910923004,
        -0.0017942327540367842,
        -0.28734663128852844
      ],
      "type": "VEC3"
    },
    {
      "bufferView": 2,
      "byteOffset": 53676,
      "componentType": 5126,
      "count": 1833,
      "max": [
        0.9998672008514404,
        1.0,
        0.9998704195022583
      ],
      "min": [
        -0.9998672008514404,
        -0.9999775886535645,
        -0.9998704195022583
      ],
      "type": "VEC3"
    },
    {
      "bufferView": 3,
      "byteOffset": 21120,
      "componentType": 5126,
      "count": 1833,
      "max": [
        1.0,
        0.994957685470581,
        0.887965202331543,
        1.0
      ],
      "min": [
        -0.7119712829589844,
        -0.994957685470581,
        -1.0,
        -1.0
      ],
      "type": "VEC4"
    },
    {
      "bufferView": 1,
      "byteOffset": 52800,
      "componentType": 5126,
      "count": 1833,
      "max": [
        1.8249354362487793,
        1.8499999046325684
      ],
      "min": [
        -0.8384838104248047,
        -0.8499999046325684
      ],
      "type": "VEC2"
    },
    {
      "bufferView": 1,
      "byteOffset": 67464,
      "componentType": 5126,
      "count": 1833,
      "max": [
        0.7044371366500854,
        0.7647854685783386
      ],
      "min": [
        0.29556289315223694,
        0.2983705401420593
      ],
      "type": "VEC2"
    },
    {
      "bufferView": 1,
      "byteOffset": 82128,
      "componentType": 5126,
      "count": 1833,
      "max": [
        1.8249354362487793,
        1.8499999046325684
      ],
      "min": [
        -0.8384838104248047,
        -0.8499999046325684
      ],
      "type": "VEC2"
    },
    {
      "bufferView": 1,
      "byteOffset": 96792,
      "componentType": 5126,
      "count": 1833,
      "max": [
        1.8249354362487793,
        1.8499999046325684
      ],
      "min": [
        -0.8384838104248047,
        -0.8499999046325684
      ],
      "type": "VEC2"
    },
    {
      "bufferView": 1,
      "byteOffset": 111456,
      "componentType": 5126,
      "count": 1833,
      "max": [
        1.8249354362487793,
        1.8499999046325684
      ],
      "min": [
        -0.8384838104248047,
        -0.8499999046325684
      ],
      "type": "VEC2"
    },
    {
      "bufferView": 0,
      "byteOffset": 13944,
      "componentType": 5125,
      "count": 4314,
      "type": "SCALAR"
    },
    {
      "bufferView": 2,
      "byteOffset": 75672,
      "componentType": 5126,
      "count": 32,
      "max": [
        0.23388679325580597,
        0.47482457756996155,
        0.2305888682603836
      ],
      "min": [
        -0.23388679325580597,
        0.47482457756996155,
        -0.2305888682603836
      ],
      "type": "VEC3"
    },
    {
      "bufferView": 2,
      "byteOffset": 76056,
      "componentType": 5126,
      "count": 32,
      "max": [
        0.0,
        1.0,
        0.0
      ],
      "min": [
        0.0,
        1.0,
        0.0
      ],
      "type": "VEC3"
    },
    {
      "bufferView": 3,
      "byteOffset": 50448,
      "componentType": 5126,
      "count": 32,
      "max": [
        1.0,
        0.0,
        0.00010187215957557783,
        -1.0
      ],
      "min": [
        1.0,
        0.0,
        -0.0001013332002912648,
        -1.0
      ],
      "type": "VEC4"
    },
    {
      "bufferView": 1,
      "byteOffset": 126120,
      "componentType": 5126,
      "count": 32,
      "max": [
        1.0,
        0.9929226636886597
      ],
      "min": [
        0.0,
        0.007077336311340332
      ],
      "type": "VEC2"
    },
    {
      "bufferView": 1,
      "byteOffset": 126376,
      "componentType": 5126,
      "count": 32,
      "max": [
        1.0,
        0.9929226636886597
      ],
      "min": [
        0.0,
        0.007077336311340332
      ],
      "type": "VEC2"
    },
    {
      "bufferView": 1,
      "byteOffset": 126632,
      "componentType": 5126,
      "count": 32,
      "max": [
        1.0,
        0.9929226636886597
      ],
      "min": [
        0.0,
        0.007077336311340332
      ],
      "type": "VEC2"
    },
    {
      "bufferView": 1,
      "byteOffset": 126888,
      "componentType": 5126,
      "count": 32,
      "max": [
        1.0,
        0.9929226636886597
      ],
      "min": [
        0.0,
        0.007077336311340332
      ],
      "type": "VEC2"
    },
    {
      "bufferView": 1,
      "byteOffset": 127144,
      "componentType": 5126,
      "count": 32,
      "max": [
        1.0,
        0.9929226636886597
      ],
      "min": [
        0.0,
        0.007077336311340332
      ],
      "type": "VEC2"
    },
    {
      "bufferView": 1,
      "byteOffset": 127400,
      "componentType": 5126,
      "count": 32,
      "max": [
        1.0,
        0.9929226636886597
      ],
      "min": [
        0.0,
        0.007077336311340332
      ],
      "type": "VEC2"
    },
    {
      "bufferView": 0,
      "byteOffset": 31200,
      "componentType": 5125,
      "count": 90,
      "type": "SCALAR"
    }
  ],
  "asset": {
    "extras": {
      "author": "Jonnie (https://sketchfab.com/scaryrocker8)",
      "license": "CC-BY-4.0 (http://creativecommons.org/licenses/by/4.0/)",
      "source": "https://sketchfab.com/3d-models/snake-plant-8f293d757b7d4ac09d743d8e6ec5d11f",
      "title": "Snake Plant"
    },
    "generator": "Sketchfab-16.71.0",
    "version": "2.0"
  },
  "bufferViews": [
    {
      "buffer": 0,
      "byteLength": 31560,
      "name": "floatBufferViews",
      "target": 34963
    },
    {
      "buffer": 0,
      "byteLength": 127656,
      "byteOffset": 31560,
      "byteStride": 8,
      "name": "floatBufferViews",
      "target": 34962
    },
    {
      "buffer": 0,
      "byteLength": 76440,
      "byteOffset": 159216,
      "byteStride": 12,
      "name": "floatBufferViews",
      "target": 34962
    },
    {
      "buffer": 0,
      "byteLength": 50960,
      "byteOffset": 235656,
      "byteStride": 16,
      "name": "floatBufferViews",
      "target": 34962
    }
  ],
  "buffers": [
    {
      "byteLength": 286616,
      "uri": "scene.bin"
    }
  ],
  "extensionsUsed": [
    "KHR_materials_specular"
  ],
  "images": [
    {
      "uri": "textures/Leaves_baseColor.png"
    },
    {
      "uri": "textures/Leaves_metallicRoughness.png"
    },
    {
      "uri": "textures/Leaves_normal.png"
    },
    {
      "uri": "textures/Old_clay_rusty_texture_baseColor.jpeg"
    },
    {
      "uri": "textures/Old_clay_rusty_texture_metallicRoughness.png"
    },
    {
      "uri": "textures/Old_clay_rusty_texture_normal.jpeg"
    },
    {
      "uri": "textures/Soil_baseColor.png"
    },
    {
      "uri": "textures/Soil_metallicRoughness.png"
    },
    {
      "uri": "textures/Soil_normal.png"
    },
    {
      "uri": "textures/Soil_specularf0.png"
    }
  ],
  "materials": [
    {
      "doubleSided": true,
      "name": "Leaves",
      "normalTexture": {
        "index": 2
      },
      "pbrMetallicRoughness": {
        "baseColorTexture": {
          "index": 0
        },
        "metallicFactor": 0.0,
        "metallicRoughnessTexture": {
          "index": 1
        }
      }
    },
    {
      "doubleSided": true,
      "name": "Old_clay_rusty_texture",
      "normalTexture": {
        "index": 5
      },
      "pbrMetallicRoughness": {
        "baseColorTexture": {
          "index": 3
        },
        "metallicFactor": 0.0,
        "metallicRoughnessTexture": {
          "index": 4
        }
      }
    },
    {
      "doubleSided": true,
      "extensions": {
        "KHR_materials_specular": {
          "specularColorFactor": [
            1.0,
            1.0,
            1.0
          ],
          "specularFactor": 1.0,
          "specularTexture": {
            "index": 9
          }
        }
      },
      "name": "Soil",
      "normalTexture": {
        "index": 8
      },
      "pbrMetallicRoughness": {
        "baseColorTexture": {
          "index": 6
        },
        "metallicFactor": 0.0,
        "metallicRoughnessTexture": {
          "index": 7
        }
      }
    }
  ],
  "meshes": [
    {
      "name": "Object_0",
      "primitives": [
        {
          "attributes": {
            "NORMAL": 1,
            "POSITION": 0,
            "TANGENT": 2,
            "TEXCOORD_0": 3,
            "TEXCOORD_1": 4,
            "TEXCOORD_2": 5,
            "TEXCOORD_3": 6,
            "TEXCOORD_4": 7
          },
          "indices": 8,
          "material": 0,
          "mode": 4
        }
      ]
    },
    {
      "name": "Object_1",
      "primitives": [
        {
          "attributes": {
            "NORMAL": 10,
            "POSITION": 9,
            "TANGENT": 11,
            "TEXCOORD_0": 12,
            "TEXCOORD_1": 13,
            "TEXCOORD_2": 14,
            "TEXCOORD_3": 15,
            "TEXCOORD_4": 16
          },
          "indices": 17,
          "material": 1,
          "mode": 4
        }
      ]
    },
    {
      "name": "Object_2",
      "primitives": [
        {
          "attributes": {
            "NORMAL": 19,
            "POSITION": 18,
            "TANGENT": 20,
            "TEXCOORD_0": 21,
            "TEXCOORD_1": 22,
            "TEXCOORD_2": 23,
            "TEXCOORD_3": 24,
            "TEXCOORD_4": 25,
            "TEXCOORD_5": 26
          },
          "indices": 27,
          "material": 2,
          "mode": 4
        }
      ]
    }
  ],
  "nodes": [
    {
      "children": [
        1
      ],
      "matrix": [
        1.0,
        0.0,
        0.0,
        0.0,
        0.0,
        2.220446049250313e-16,
        -1.0,
        0.0,
        0.0,
        1.0,
        2.220446049250313e-16,
        0.0,
        0.0,
        0.0,
        0.0,
        1.0
      ],
      "name": "Sketchfab_model"
    },
    {
      "children": [
        2
      ],
      "name": "root"
    },
    {
      "children": [
        3
      ],
      "matrix": [
        1.0,
        0.0,
        0.0,
        0.0,
        0.0,
        2.220446049250313e-16,
        1.0,
        0.0,
        0.0,
        -1.0,
        2.220446049250313e-16,
        0.0,
        0.0,
        0.0,
        0.0,
        1.0
      ],
      "name": "GLTF_SceneRootNode"
    },
    {
      "children": [
        4,
        5,
        6
      ],
      "name": "Snake Plant_0"
    },
    {
      "mesh": 0,
      "name": "Object_4"
    },
    {
      "mesh": 1,
      "name": "Object_5"
    },
    {
      "mesh": 2,
      "name": "Object_6"
    }
  ],
  "samplers": [
    {
      "magFilter": 9729,
      "minFilter": 9987,
      "wrapS": 10497,
      "wrapT": 10497
    }
  ],
  "scene": 0,
  "scenes": [
    {
      "name": "Sketchfab_Scene",
      "nodes": [
        0
      ]
    }
  ],
  "textures": [
    {
      "sampler": 0,
      "source": 0
    },
    {
      "sampler": 0,
      "source": 1
    },
    {
      "sampler": 0,
      "source": 2
    },
    {
      "sampler": 0,
      "source": 3
    },
    {
      "sampler": 0,
      "source": 4
    },
    {
      "sampler": 0,
      "source": 5
    },
    {
      "sampler": 0,
      "source": 6
    },
    {
      "sampler": 0,
      "source": 7
    },
    {
      "sampler": 0,
      "source": 8
    },
    {
      "sampler": 0,
      "source": 9
    }
  ]
}
